<svg width="100.8837114667149" height="40.14290654293148" viewBox="0 0 50.8837114667149 80.14290654293148" className="css-1j8o68f">
  <defs id="SvgjsDefs7984">
    <linearGradient id="SvgjsLinearGradient7991">
      <stop id="SvgjsStop7992" stopColor="#ef4136" offset="0"/>
      <stop id="SvgjsStop7993" stopColor="#fbb040" offset="1"/>
    </linearGradient>
  </defs>
  <g id="SvgjsG7985" featurekey="FRM3ZD-0" transform="matrix(4.780447373467536,0,0,4.780447373467536,-2.390319425521269,-24.465940628641853)" fill="url(#SvgjsLinearGradient7991)">
    <path fill='orange' d="M7.1 13.92 c0.38666 0.32 0.69336 0.68998 0.92002 1.11 s0.34 0.87666 0.34 1.37 s-0.12 0.96 -0.36 1.4 s-0.57 0.82334 -0.99 1.15 s-0.91 0.58332 -1.47 0.76998 s-1.16 0.28 -1.8 0.28 s-1.2367 -0.09334 -1.79 -0.28 s-1.0367 -0.44 -1.45 -0.76 l1.1 -4.14 c-0.58666 -0.54666 -0.88 -1.1867 -0.88 -1.92 c0 -0.44 0.11666 -0.85334 0.35 -1.24 s0.55 -0.72332 0.95 -1.01 s0.86666 -0.51332 1.4 -0.67998 s1.1 -0.25 1.7 -0.25 c0.54666 0 1.0667 0.06666 1.56 0.2 s0.93334 0.33334 1.32 0.6 z"/>
  </g> 
</svg>
